<svg xmlns="http://www.w3.org/2000/svg" width="1024" height="1024" viewBox="0 0 1024 1024">
  <defs>
    <linearGradient id="bg" x1="160" y1="96" x2="864" y2="928" gradientUnits="userSpaceOnUse">
      <stop stop-color="#6f8cff"/>
      <stop offset="0.52" stop-color="#3157d5"/>
      <stop offset="1" stop-color="#17245f"/>
    </linearGradient>
    <linearGradient id="paper" x1="310" y1="212" x2="738" y2="816" gradientUnits="userSpaceOnUse">
      <stop stop-color="#ffffff"/>
      <stop offset="1" stop-color="#dfe7ff"/>
    </linearGradient>
    <filter id="shadow" x="156" y="112" width="740" height="820" filterUnits="userSpaceOnUse" color-interpolation-filters="sRGB">
      <feDropShadow dx="0" dy="36" stdDeviation="38" flood-color="#061443" flood-opacity="0.34"/>
    </filter>
  </defs>

  <rect x="96" y="96" width="832" height="832" rx="214" fill="url(#bg)"/>
  <circle cx="774" cy="210" r="126" fill="#9fb2ff" opacity="0.32"/>
  <circle cx="214" cy="792" r="152" fill="#111827" opacity="0.2"/>

  <g filter="url(#shadow)">
    <path d="M300 180h310l150 150v468c0 48-39 87-87 87H300c-48 0-87-39-87-87V267c0-48 39-87 87-87Z" fill="url(#paper)"/>
    <path d="M610 180v118c0 23 19 42 42 42h108L610 180Z" fill="#b8c7ff"/>
    <path d="M314 394h298" stroke="#9aa8c4" stroke-width="34" stroke-linecap="round"/>
    <path d="M314 492h398" stroke="#c1cadb" stroke-width="34" stroke-linecap="round"/>
    <path d="M314 590h250" stroke="#c1cadb" stroke-width="34" stroke-linecap="round"/>
  </g>

  <g>
    <path d="M313 725l54-142 54 142" fill="none" stroke="#17245f" stroke-width="42" stroke-linecap="round" stroke-linejoin="round"/>
    <path d="M333 680h68" stroke="#17245f" stroke-width="34" stroke-linecap="round"/>
    <path d="M497 725V590l66 74 66-74v135" fill="none" stroke="#17245f" stroke-width="42" stroke-linecap="round" stroke-linejoin="round"/>
  </g>

  <rect x="672" y="676" width="150" height="52" rx="26" fill="#f4b35e"/>
  <path d="M692 702h110" stroke="#fff7e8" stroke-width="18" stroke-linecap="round"/>
</svg>
